    <svg
      version="1.1"
      id="mountains"
      xmlns="http://www.w3.org/2000/svg"
      xmlns:xlink="http://www.w3.org/1999/xlink"
      x="0px"
      y="0px"
      viewBox="1 1 841.89 595.276"
      style="enable-background: new 0 0 841.89 595.276;"
      xml:space="preserve"
    >
      <style type="text/css">
        .st0 {
          fill: #2d2d2d;
        }
      </style>
      <path
        class="st0"
        d="M718.493,399.258c-1.13-0.195-4.343-1.278-5.478-1.441c-1.885-0.271-3.79-0.796-5.661-0.701
	c-6.37,0.322-12.666,1.391-18.771-1.419c-2.233-1.028-4.199-3.578-6.722-5.648c-2.522-2.07-11.149-6.231-13.851-7.34
	s-6.593-5.504-9.884-8.771c-2.554-2.535-2.954-5.017-5.33-7.741c-0.5-0.574-2.969-1.52-3.742-1.727
	c-2.301-0.616-4.198-0.966-6.362-3.004c-2.164-2.038-3.875-6.982-5.307-8.325c-3.165-2.966-7.397-6.89-10.884-9.402
	c-1.811-1.306-4.717-1.795-7.025-1.574c-6.244,0.597-10.404-2.199-15.544-5.374c-5.027-3.105-8.432-7.694-12.649-11.864
	c-1.92-1.898-5.354-6.882-6.713-9.433c-2.835-5.325-6.299-6.941-10.803-11.322c-2.578-2.508-4.035-5.94-3.591-9.803
	c0.284-2.476,0.055-5.088-1.781-6.855c-0.808-0.777-1.037-2.513-2.168-4.563c-1.563,1.023-6.132,3.551-7.797,5.145
	c-6.928,6.637-14.659,12.097-22.796,17.161c-4.493,2.796-10.334,4.834-12.99,7.881c-0.684,0.785-2.877,5.638-3.219,7.188
	c-0.014,0.065-1.026,5.571-2.385,6.986c-1.359,1.415-1.79,5.009-5.415,10.263c-2.86,4.147-6.61,7.326-7.628,8.472
	c-2.308,2.598-6.594,5.03-9.256,7.664c-2.662,2.634-4.712,6.076-5.924,6.96c-0.466,0.34-4.079,4.621-5.68,5.874
	c-1.635,1.28-3.619,2.112-5.258,3.387c-2.396,1.864-2.548,1.079-7.426,3.949c-4.878,2.871-10.486,9.064-16.943,13.985
	c-4.245,3.234-8.681,6.646-13.25,9.327c-2.533,1.487-7.886,3.992-8.32,2.96c-0.433-1.032,0.504-3.703,1.339-4.464
	c3.299-3.007,6.111-5.641,9.023-8.965c1.471-1.679,1.535-4.648,2.035-7.076c0.105-0.51-0.517-1.462-1.055-1.766
	c-3.545-2.002-5.433-9.5-6.653-12.946c-1.12-3.165-5.032-3.812-7.56-5.377c-7.82-4.841-10.294-12.25-10.734-20.863
	c-0.294-5.764-0.497-11.011-1.061-16.757c-0.297-3.023-3.246-3.911-6.089-4.014c-2.238-0.081-3.071-0.913-3.112-3.284
	c-0.086-4.935-8.752-10.057-10.974-8.883c-2.222,1.174-4.296,5.63-6.106,7.643c-2.522,2.804-6.489,5.197-9.176,7.838
	c-3.816,3.75-7.396,7.483-9.238,12.792c-1.353,3.898-2.875,7.95-4.703,11.705c-1.341,2.754-2.12,5.789-3.526,8.504
	c-2.339,4.516-4.556,11.298-8.884,14.318c-0.771,0.538-2.515,1.807-2.712,1.04s0.268-3.182,0.664-3.924
	c0.919-1.722,1.525-2.201,2.716-3.765c1.208-1.587,4.631-13.674,4.941-14.402c1.889-4.418,3.158-7.175,5.083-11.578
	c2.66-6.084,3.472-11.489,8.755-15.841c1.722-1.419,2.982-3.392,4.486-5.082c1.177-1.323,4.591-4.769,5.602-6.203
	c1.066-1.512,2.184-3.167,2.6-4.92c0.775-3.268,0.682-6.746,1.216-10.399c-3.287,2.505-8.086,5.841-11.674,7.992
	c-4.326,2.594-9.021,4.572-13.55,6.83c-0.814,0.406-1.698,0.762-2.371,1.346c-1.855,1.61-3.57,3.383-5.427,4.992
	c-2.176,1.886-4.416,3.702-6.686,5.474c-0.977,0.763-2.121,1.307-3.145,2.014c-0.731,0.505-1.712,0.976-2.023,1.702
	c-1.282,2.991-6.967,8.903-8.973,10.81c-3.744,3.56-6.013,7.206-6.178,12.18c-0.033,0.998-1.703,1.899-2.513,2.927
	c-0.638,0.81-2.335,2.973-2.26,3.797c0.168,1.846-0.474,6.268-1.712,10.596c-1.391,4.863-3.923,8.567-4.29,9.511
	c-0.321,0.826-2.186,1.905-3.076,3.857c-1.031,2.259-1.102,5.415-1.503,6.324c-0.747,1.694-4.387,4.506-4.69,4.734
	c-2.715,2.043-3.961,7.528-4.601,6.04c-0.64-1.488,0.433-6.498,0.553-6.899c0.532-1.78,1.428-3.451,2.209-5.155
	c1.524-3.326,3.525-7.189,4.777-10.613c0.778-2.13,1.413-4.403,1.78-6.682c0.498-3.089,1.06-6.17,1.438-9.274
	c0.157-1.288,0.959-3.326,0.897-4.64c-1.187,0.442-6.414,3.434-7.32,4.206c-4.846,4.131-5.415,4.785-10.178,9.014
	c-0.235,0.209-2.892,2.366-2.936,2.604c-0.95,5.193-5.929,5.472-9.288,7.753c-1.441,0.979-2.768,2.297-3.758,3.73
	c-1.518,2.199-2.934,4.932-5.787,5.27c-2,0.237-4.081,1.193-5.773,2.346c-3.678,2.506-12.812,1.427-14.251,0.482
	c-1.439-0.944,8.586-4.89,11.117-6.059c4.97-2.295,7.916-5.237,10.993-9.675c1.756-2.532,9.711-6.516,10.898-7.952
	c3.296-3.989,7.644-7.889,9.693-13.052c1.437-3.621,6.3-5.68,10.235-6.676c3.169-0.802,7.765-3.354,10.754-7.09
	c3.57-4.462,7.805-8.725,11.773-12.856c4.194-4.367,8.195-9.075,12.545-13.285c1.187-1.149,2.771-1.894,4.192-2.794
	c1.688-1.069,5.777-2.935,6.944-4.407c3.121-3.938,6.649-4.726,10.865-6.659c7.569-3.47,10.334-5.663,15.731-11.728
	c1.635-1.838,7.168-5.505,9.885-5.837c4.003-0.488,8.896,3.983,9.781,6.511c0.885,2.529,5.499,4.503,6.222,7.298
	c1.087,4.202,4.339,6.43,7.309,8.485c3.963,2.743,9.623,3.785,12.652,7.324c5.618,6.561,12.795,11.973,15.31,21.136
	c0.88,3.206,4.982,5.68,7.914,8.125c2.64,2.201,6.896,3.818,9.472,6.916c2.576,3.098,7.709,4.261,8.962,5.386
	c2.192,1.967,5.58,3.508,6.414,2.351c2.088-2.896,4.619-4.023,5.819-5.035c0.651-0.549,1.266-1.454,1.38-2.27
	c0.374-2.69,5.348-6.388,0.225-7.739c-0.587-0.155-5.145-0.418-6.069-2.741c-0.925-2.324-2.615-4.093-5.202-9.227
	c-2.31-4.583-5.99-10.938-6.343-18.072s-1.854-24.73-6.17-27.359c-5.267-3.209-4.953-5.918-6.742-7.596
	c-2.224-2.086-3.973-4.863-3.771-6.92c0.833-8.478-0.854-14.342-4.042-17.248c-3.187-2.906-5.552-4.114-6.892-6.639
	c-1.34-2.525-1.99-4.42-2.659-6.389c-0.971-2.859-0.324-4.268-1.468-7.062c-0.624-1.525-2.629-3.482-3.628-4.765
	c-2.566-3.294-4.29-7.516-5.028-9.375c-0.738-1.859-1.552-3.273-2.591-3.796c-1.039-0.523-2.004,0.485-2.484,0.876
	c-3.679,2.999-7.228,6.163-10.966,9.084c-4.952,3.871-10.012,7.607-15.084,11.321c-1.673,1.225-3.401,2.587-5.324,3.213
	c-4.301,1.4-6.824,4.832-9.714,7.831c-1.937,2.01-3.549,4.334-5.64,6.932c4.403,1.407,8.393,0.265,12.47,2.998
	c3.56,2.387,8.155,2.275,10.31,6.788c-3.786-1.422-7.676-1.148-10.62-1.885c-1.984-0.497-4.894,0.346-6.989,1.616
	c-1.909,1.158-6.775,0.871-9.217,1.313c-6.671,1.207-11.083,1.424-17.174,4.042c-4.014,1.725-8.075,7.862-11.101,11.562
	c-2.579,3.154-4.323,6.641-6.568,10.053c-1.194,1.815-2.527,3.539-3.578,5.449c-2.054,3.734-4.21,5.687-6.117,9.495
	c-1.002,1.999-4.843,5.188-4.843,5.188s0.432-3.821,0.606-4.531c0.147-0.599,0.488-2.592,0.753-3.787
	c-1.395,0.312-4.485,1.26-5.354,1.769c-3.316,1.942-6.176,3.469-8.751,6.164c-4.523,4.734-8.287,10.193-12.374,15.345
	c-0.914,1.152-1.797,2.335-2.782,3.424c-5.737,6.34-10.811,12.699-13.363,21.111c-1.099,3.621-4.074,6.382-6.341,9.643
	c-2.002,2.88-3.213,6.902-5.969,9.644c-0.93,0.925-5.508,3.552-5.504,2.363c0.003-1.189,3.113-3.648,3.952-5.414
	c1.606-3.379,3.549-5.439,3.664-9.336c0.069-2.35,1.059-4.668,1.586-7.011c0.191-0.849,0.667-1.693,0.279-2.488
	c-0.629-1.288-2.104-0.923-2.855-0.583c-3.707,1.676-7.303,3.6-10.925,5.46c-0.924,0.475-2.903,1.608-3.871,1.912
	c-5.378,1.683-8.846,3.867-12.577,8.37c-1.066,1.286-5.956,3.245-9.042,7.749c-2.572,3.753-3.487,10.091-3.671,11.656
	c-0.283,2.404-0.697,3.16-1.118,5.542c-0.133,0.753-0.807,2.291-1.358,2.963c-0.551,0.672-0.378,3.227-1.414,1.887
	c-1.037-1.34,0.451-3.261,0.528-4.217c0.195-2.415,1.036-5.995,1.139-8.41c0.059-1.377,0.618-4.405,0.387-5.794
	c-1.257,0.471-2.214,1.44-3.435,1.99c-0.957,0.43-2.525,1.06-3.484,1.484c-2.515,1.114-3.929,2.364-5.51,4.518
	c-3.03,4.13-8.321,6.387-10.719,7.402c-2.32,0.982-7.989,3.388-11.606,3.932c-0.74,0.111-5.406,1.272-5.644,0.63
	c-0.244-0.66,5.186-3.867,5.807-4.22c4.806-2.734,8.213-5.285,12.961-8.11c1.918-1.142,3.368-3.077,5.009-4.674
	c3.808-3.707,7.713-7.324,11.374-11.172c3.932-4.133,7.592-8.523,11.453-12.724c1.125-1.224,2.475-2.268,3.824-3.256
	c5.703-4.176,9.709-9.953,14.457-15.036c2.618-2.803,5.959-4.921,8.915-7.419c4.767-4.028,9.266-8.413,14.287-12.088
	c4.664-3.414,9.905-6.031,14.791-9.155c1.062-0.679,1.855-1.934,2.507-3.074c4.07-7.127,5.396-14.594,2.593-22.534
	c-1.073-3.039-0.213-12.281-2.141-12.424c-1.928-0.143-10.12,7.991-10.873,9.705c-0.753,1.714-5.029,6.974-7.459,10.977
	c-1.375,2.266-1.948,5.963-3.62,7.97c-1.253,1.504-3.627,2.173-5.325,3.3c-4.555,3.025-10.313,3.556-13.324,9.327
	c-3.39,6.497-8.441,12.213-14.975,15.992c-2.238,1.294-5.998,1.594-7.738,3.639c-1.553,1.825-6.441,4.612-7.547,6.717
	c0,0-3.806,3.037,0.578,6.342c1.255,0.946,3.563,5.563,2.608,6.694c-1.034,1.224-2.439-2.036-3.806-2.932
	c-1.808-1.185-4.106-2.091-6.332-3.211c-2.226-1.12-6.934-0.549-10.104-0.2c-3.516,0.387-5.554,2.651-8.915,3.778
	c-1.887,0.633-4.042,1.68-5.616,2.995c-2.982,2.491-4.459,4.443-7.969,7.261c-1.529,1.228-4.667,4.299-6.78,7.041
	c-1.528,1.983-5.757,7.223-11.086,11.669c-2.042,1.703-4.934,2.661-5.857,3.897c-0.923,1.236-1.193,3.234-1.832,4.525
	c-1.125,2.276-2.814,4.442-3.956,6.003c-1.79,2.447-5.567,5.396-6.33,5.333c-1.789-0.148,3.027-4.171,3.862-5.905
	c0.835-1.735,3.774-6.678,3.24-7.434c-0.534-0.756-7.655,5.648-11.148,7.587c-3.512,1.949-15.627,8.696-16.019,6.741
	c-0.208-1.041,8.306-5.622,9.254-6.269c4.55-3.108,8.138-6.232,12.78-9.202c2.73-1.747,6.622-3.719,9.154-5.697
	c6.718-5.76,10.977-10.63,13.412-14.454c1.828-2.871,4.885-6.407,8.262-7.931c2.455-1.108,4.88-3.863,5.516-4.515
	c3-3.082,5.776-5.84,9.055-8.577c2.239-1.869,4.707-3.288,7.62-3.639c2.976-0.359,6.23-0.081,9.182-0.235
	c5.307-0.277,7.27-4.923,9.565-8.706c3.532-5.823,10.298-7.897,15.365-11.73c4.107-3.107,8.23-7.042,10.627-11.607
	c2.919-5.56,8.778-7.281,13.874-9.873c6.348-3.228,9.052-8.717,12.122-14.95c1.588-3.223,5.309-5.41,8.112-8.015
	c2.433-2.262,5.303-4.186,7.752-6.432c1.379-1.265,3.235-3.885,4.726-4.992c2.388-1.773,4.34-1.61,6.876,0.639
	c5.796,5.138,10.729,12.551,17.813,16.236c3.091,1.608,5.796,3.992,8.58,6.147c2.72,2.106,4.52,2.049,6.135-0.972
	c3.27-6.114,8.395-10.644,13.008-15.585c1.314-1.407,3.585-2.223,5.561-2.652c5.717-1.239,10.122-4.258,13.722-8.772
	c1.944-2.438,4.237-4.595,6.312-6.932c2.228-2.51,4.727-4.87,6.487-7.684c2.168-3.466,4.347-5.944,8.585-7.565
	c5.809-2.223,10.997-6.204,16.227-9.761c3.521-2.395,6.549-5.504,9.993-8.027c4.002-2.933,8.951-10.098,11.258-14.135
	c2.03-3.552,4.657-4.309,8.141-1.327c3.484,2.981,16.226,17.577,19.632,22.119c3.486,4.648,11.695,9.411,16.235,14.011
	c3.656,3.704,8.506,7.301,12.029,11.117c3.24,3.51,6.119,7.405,8.791,11.376c3.802,5.651,8.761,12.815,12.499,18.511
	c1.169,1.782,2.833,3.265,4.386,4.766c4.517,4.37,10.786,10.388,12.227,11.653c1.441,1.265,5.937,4.976,7.634,6.179
	c1.698,1.204,6.554,5.631,10.89,2.719c3.293-2.211,8.523-5.762,11.687-8.138c3.064-2.301,5.853-4.973,8.719-7.532
	c5.159-4.607,10.31-9.222,15.413-13.89c2.728-2.495,9.048-0.998,10.021,2.553c2.085,7.616,7.721,11.925,13.685,16.621
	c3.357,2.643,6.037,6.128,9.192,9.05c4.509,4.175,8.761,8.827,13.877,12.094c6.065,3.873,14.99,9.666,18.146,10.238
	c3.156,0.572,10.565,4.594,12.315,9.748c0.513,1.51,1.833,2.779,2.902,4.06c2.467,2.955,4.75,6.138,7.598,8.68
	c2.358,2.105,5.126,4.228,7.882,5.882c3.484,2.09,6.951,4.211,10.481,6.221c1.811,1.031,3.907,1.618,5.591,2.808
	c5.003,3.534,11.346,6.764,14.675,12.421c3.329,5.657,7.896,10.574,11.739,15.945c2.682,3.749,5.15,7.661,7.511,11.622
	C716.5,395.744,718.355,398.042,718.493,399.258z M555.631,300.089c-2.675,2.532-3.481,4.295-6.089,6.925
	c-1.554,1.567-3.232,3.047-5.026,4.224c-0.91,0.597-1.977,2.628-3.896,3.044c-2.378,0.517-5.595,2.363-8.264,5.088
	c-1.579,1.612-7.357,9.401-8.146,11.658c-0.204,0.582-2.868,10.47-2.871,11.898s2.826-2.265,3.238-2.932
	c0.964-1.562,2.46-6.751,4.162-8.623c2.1-2.308,4.37-4.854,6.565-7.039c1.064-1.059,5.165-2.79,5.372-2.659
	c-0.36,1.853-1.64,5.342-1.601,6.53c0.039,1.188,3.399-1.651,5-4.282c1.967-3.233,3.181-4.512,5.361-7.577
	c2.071-2.914,5.076-4.467,6.436-7.733c0.843-2.024,1.232-4.155,2.722-5.93c0.685-0.816,2.056-4.704,2.059-5.835
	C560.656,295.716,556.328,299.429,555.631,300.089z M568.495,366.797c2.995,2.706,3.167,7.576,5.718,10.744
	c1.854,2.302,3.389,4.86,5.24,7.165c0.969,1.207,2.198,2.297,3.513,3.11c1.701,1.052,4.05,1.355,5.337,2.72
	c3.293,3.491,7.824,4.87,11.858,4.954c4.494,0.094,8.063,1.085,11.406,3.699c4.867,3.805,11.344,5.117,16.865,3.56
	c2.951-0.832,3.316-3.045,1.249-5.285c-1.993-2.161-4.644-6.092-7.599-7.361c-1.645-0.706-2.716-2.693-4.128-4.016
	c-1.564-1.465-3.401-2.672-4.805-4.269c-3.878-4.41-7.699-8.88-11.317-13.503c-1.473-1.882-4.159-6.64-4.159-6.64
	s4.814,0.304,9.165,3.662c2.542,2.024,5.761,2.937,8.176,5.138c0.581,0.529,5.887,1.499,8.162,3.523
	c1.013,0.901,8.051,4.477,8.897,5.578c0.478,0.622,1.068,1.155,1.59,1.745c1.263,1.428,5.801,6.086,6.108,7.701
	c1.286,3.339,7.754,10.841,11.642,11.764c1.532,0.363-1.501-1.91-3.489-4.933c-1.533-2.332-2.705-4.493-3.128-5.323
	c-0.703-1.379-1.171-4.238-1.157-5.115c0.015-0.877,4.221,1.565,6.348,2.662c2.128,1.097,6.647,4.806,11.649,9.077
	c0.528,0.451,7.061,7.033,7.424,6.731c0.563-0.468-1.826-5.663-3.771-8.911c-1.945-3.248-7.042-7.927-11.403-11.506
	c-2.926-2.401-6.128-2.943-8.402-6.049c-2.273-3.107-5.12-7.322-10.039-8.641c-0.616-0.165-2.028-2.323-2.52-2.986
	c-0.721-0.971-1.255-2.329-2.224-2.824c-3.245-1.657-6.604-1.858-9.822-3.559c-3.34-1.765-6.739-3.609-9.614-6.015
	c-3.494-2.925-5.579-6.84-10.927-6.741c-1.87,0.035-3.759,0.013-5.612-0.214c-1.852-0.226-5.918,1.059-7.663-0.988
	c-1.746-2.047-5.169-3.841-8.01-6.008c-4.141-3.159-8.228-6.418-12.076-9.922c-3.021-2.751-5.743-4.996-9.228-2.953
	c-2.979,1.746-5.281,3.801-7.423,6.385c-4.86,5.859-10.603,10.189-16.865,14.11c-1.623,1.016-4.125,3.682-5.655,4.8
	c-3.324,2.43-6.047,2.803-9.125,5.537c-1.243,1.105-2.03,2.733-2.983,4.151c-0.558,0.83-2.643,2.441-3.392,2.966
	s-4.301,3.397-7.046,4.677c-3.164,1.475-8.538,4.673-11.659,6.218c-4.943,2.447-10.14,5.91-11.838,7.194
	c-0.974,0.736-2.908,4.452-3.955,5.995c-1.048,1.543-4.611,8.008-3.999,8.209c0.777,0.256,3.263-2.337,4.105-2.755
	c2.092-1.038,3.578-3.858,5.731-5.439c2.153-1.581,3.416-2.816,4.858-4.084c3.594-3.162,11.6-8.258,16.481-9.382
	c-1.076,1.823-1.477,6.708-4.106,7.869c-4.044,1.785-5.893,8.568-7.542,12.669c-0.326,0.812-1.063,6.724-0.534,6.862
	c0.469,0.122,2.85-3.043,3.213-3.521c3.289-4.33,5.419-10.068,10.915-11.914c0.404-0.136,0.75-0.712,0.945-1.16
	c1.809-4.155,4.612-7.007,6.446-11.151c0.363-0.821,1.01-1.523,1.565-2.25c1.476-1.934,2.905-3.91,4.479-5.763
	c1.896-2.233,3.636-4.768,5.982-6.396c1.904-1.322,7.514-4.205,11.741-6.269c4.227-2.064,9.143-8.261,10.131-9.261
	c0.439-0.444,1.886-0.471,2.484-0.083c3.483,2.256,6.987,6.815,6.919,9.257s1.094,7.589,3.717,8.997
	C563.961,364.442,566.547,365.036,568.495,366.797z M403.854,378.358c-0.747-1.507-1.273-7.441-1.747-9.136
	c-0.408-1.458-3.496-9.961-3.868-13.394c-0.213-1.969,0.414-16.965-1.972-21.778c-0.351-0.708-2.716-3.591-3.503-3.726
	c-0.382-0.066,0.048,3.286,0.041,3.75c-0.018,1.201,0.32,2.411,0.513,3.618c0.325,2.026,0.958,4.065,0.906,6.076
	c-0.107,4.172-0.318,9.056,0.159,13.091c0.638,5.403,1.968,7.773,3.331,13.043c0.298,1.152,1.734,4.793,2.08,5.94
	c0.915,3.042,0.629,5.679,1.503,8.74c0.213,0.746,1.651,3.495,2.502,2.649C404.648,386.386,404.659,380.161,403.854,378.358z
	 M546.467,356.641c-0.838,0.064-1.908,0.899-2.39,1.773c-0.94,1.703-1.405,3.756-2.312,5.49c-1.559,2.978-3.583,5.661-4.916,8.756
	c-2.72,6.317-3.997,12.962-8.075,18.383c-0.474,0.63-1.807,4.732-1.645,5.616c0.101,0.552,2.795-1.15,3.173-1.305
	c1.62-0.664,2.233-1.506,3.23-2.919c1.716-2.434,2.804-5.479,4.134-8.281c2.558-5.388,3.881-11.46,7.378-16.385
	C546.674,365.472,547.024,356.598,546.467,356.641z M421.707,247.915c0.882,6.797,1.384,14.25,2.678,17.034
	c2.639,5.681,2.29,14.325,2.588,17.584c0.298,3.259-0.647,5.385,0.366,8.016c0.95,2.469,2.932,7.352,4.162,8.903
	c1.231,1.551,1.513-5.145,0.642-7.932c-0.871-2.787-2.027-11.808-0.138-12.787s3.719,3.252,9.109,10.146
	c2.502,3.201,2.866,6.189,4.016,9.061c0.797,1.991,2.856,6.35,3.432,4.582c1.075-3.3-1.221-9.956-3.296-14.943
	c-4.221-10.143-11.252-19.432-13.587-22.517c-1.646-2.174-3.968-8.773-5.305-15.576c-0.833-4.238-0.737-8.821-1.525-11.647
	c-0.623-2.238-1.55-4.16-1.868-3.619C422.024,235.849,420.888,241.605,421.707,247.915z"
      />
    </svg>
